<svg xmlns="http://www.w3.org/2000/svg" width="28" height="38" viewBox="0 0 28 38">
    <path fill="#FFF" fill-rule="evenodd" d="M27.52 26.754C26.065 32.972 20.54 37.6 13.945 37.6 6.244 37.6 0 31.287 0 23.5S6.244 9.4 13.946 9.4c.88 0 1.742.083 2.577.24-.865 2.272-2.024 6.474-2.577 6.474-4.034 0-7.305 3.307-7.305 7.386 0 4.079 3.27 7.386 7.305 7.386s7.305-3.307 7.305-7.386V0h6.641c.144 11.471.144 19.232-.001 23.283a14.543 14.543 0 0 1-.1 1.929c-.03.38-.062.682-.097.906a2.8 2.8 0 0 1-.175.636z"/>
</svg>
